<svg width="402" height="127" viewBox="0 0 402 127" fill="none" xmlns="http://www.w3.org/2000/svg">
<path d="M9.22901 126.644L7.91893 127C7.53937 124.889 7.1048 118.512 6.6152 107.869C6.11309 97.1801 5.45547 89.2644 4.64234 84.1218C4.44201 83.3889 3.95129 82.5872 3.17019 81.7167C2.42254 80.7879 1.70825 80.0715 1.02731 79.5675L0.0748584 78.7927L0 77.7059C2.36135 76.2285 6.69082 74.6351 12.9884 72.9258C13.8865 73.863 14.6173 75.3622 15.1807 77.4235C15.7316 79.439 16.1475 85.4767 16.4283 95.5366L16.7731 95.443C20.8642 94.3326 23.3637 92.0058 24.2716 88.4627C25.213 84.8613 25.1187 79.2776 23.9888 71.7115C26.952 69.7263 30.2264 68.2471 33.8119 67.2739C33.9914 67.5696 34.2273 68.3421 34.5194 69.5913C34.8574 70.8281 35.0658 72.4937 35.1445 74.5882C35.2107 76.6368 35.0784 78.8623 34.7475 81.2647C34.4626 83.6547 33.7096 86.0487 32.4887 88.4466C31.3013 90.7863 29.7378 92.8344 27.7984 94.591C32.9436 102.937 36.8572 108.222 39.5391 110.446C40.6795 111.367 41.4796 111.765 41.9392 111.64C42.7667 111.416 43.9411 110.654 45.4625 109.355L46.1772 108.719L48.458 110.83C47.1829 112.849 45.5569 114.668 43.5799 116.288C41.6489 117.894 39.6951 118.966 37.7184 119.502C35.7418 120.039 33.9661 119.684 32.3912 118.439C30.8622 117.181 29.394 115.513 27.9866 113.434C26.6125 111.298 25.0798 108.762 23.3885 105.826C21.6971 102.89 20.4944 100.657 19.7804 99.129C19.3792 99.2871 18.3052 99.6032 16.5585 100.077C16.9765 112.265 17.5799 119.802 18.3687 122.688C16.8264 124.09 13.7798 125.409 9.22901 126.644Z" fill="#4E382F"/>
<path d="M63.419 81.0848C63.4859 80.9683 63.576 80.3041 63.6892 79.0925C65.8497 78.5061 68.921 78.3614 72.903 78.6583C72.793 82.7721 72.963 87.0068 73.4128 91.3623C73.8501 95.6721 74.313 98.7201 74.8013 100.507C75.2771 102.247 75.6988 103.068 76.0666 102.968C76.3424 102.893 77.2347 102.183 78.7436 100.839L79.4583 100.202L81.3568 102.27C81.0433 102.749 80.6169 103.357 80.0776 104.093C79.5843 104.818 78.5497 105.91 76.974 107.371C75.3857 108.787 73.856 109.694 72.385 110.093C69.535 110.867 67.5296 110.033 66.3688 107.593C64.128 110.956 61.8124 112.963 59.4221 113.611C57.0777 114.248 54.8277 113.874 52.6721 112.491C50.5624 111.096 48.9691 108.428 47.8923 104.489C46.2146 98.3508 46.1578 93.1752 47.7219 88.9619C49.2735 84.7028 51.8421 82.0866 55.4276 81.1134C58.0018 80.4148 60.6656 80.4052 63.419 81.0848ZM61.9628 106.648C63.0661 106.349 64.1882 105.577 65.3294 104.332C63.8858 97.7861 63.2194 91.103 63.3303 84.2826C61.7884 84.0614 60.5349 84.0818 59.5696 84.3439C57.9147 84.793 56.9342 86.8059 56.628 90.3826C56.3552 93.9009 56.751 97.6069 57.8152 101.5C58.8795 105.394 60.262 107.11 61.9628 106.648Z" fill="#4E382F"/>
<path d="M101.814 91.5511C102.602 94.4369 101.96 97.1453 99.8868 99.6762C97.8594 102.195 95.2138 103.897 91.9501 104.783C88.6864 105.669 85.9014 105.686 83.5951 104.836C81.3348 103.974 80.0607 103.015 79.7727 101.962C79.5974 101.321 80.1202 100.072 81.3409 98.2149C82.5491 96.3125 83.661 95.0512 84.6766 94.4311C87.4383 95.5021 90.0554 97.6702 92.528 100.935C94.1913 100.336 94.8226 99.304 94.4219 97.8382C93.8459 95.7311 91.1704 93.259 86.3953 90.4219C81.6076 87.5389 78.9008 84.9523 78.2748 82.662C77.6487 80.3717 78.201 78.3274 79.9315 76.5292C81.6494 74.6852 83.9564 73.3701 86.8524 72.5841C89.7943 71.7856 92.1448 71.7135 93.9037 72.3678C95.6502 72.9763 96.7675 74.1738 97.2558 75.9602C97.7316 77.7009 96.9932 80.5091 95.0405 84.385C95.45 84.6183 95.9826 84.9412 96.6385 85.3536C97.2819 85.7203 98.2176 86.5242 99.4457 87.7654C100.674 89.0066 101.463 90.2685 101.814 91.5511ZM92.2457 82.5604C93.7256 80.3873 94.2464 78.4992 93.8082 76.896C93.37 75.2927 92.0477 74.7906 89.8412 75.3894C88.7839 75.6764 87.9732 76.1425 87.4089 76.7877C86.832 77.3871 86.6187 77.9617 86.769 78.5113C87.0444 79.5191 88.4439 80.6646 90.9673 81.9479L92.2457 82.5604Z" fill="#4E382F"/>
<path d="M114.596 69.6301C115.121 71.554 115.409 75.0433 115.457 80.0983C115.493 85.1074 115.711 88.3448 116.112 89.8106C116.5 91.2306 116.901 91.8845 117.315 91.7722C117.591 91.6973 118.529 90.9752 120.13 89.6058L120.845 88.969L122.674 91.0557C122.36 91.5344 121.934 92.1422 121.395 92.879C120.856 93.6158 119.775 94.721 118.153 96.1945C116.519 97.6221 114.897 98.5543 113.289 98.991C111.68 99.4277 110.284 99.2898 109.102 98.5774C107.907 97.8192 107.084 96.6156 106.633 94.9666C106.17 93.2717 105.931 90.1384 105.916 85.5665C105.888 80.9488 105.699 77.9986 105.348 76.716C104.822 74.7922 103.73 73.145 102.072 71.7746L101.226 71.1185L101.051 70.2066C103.299 68.8582 107.159 67.4417 112.629 65.9569C113.414 66.4818 114.07 67.7062 114.596 69.6301ZM103.617 60.3578C102.448 59.6912 101.656 58.6021 101.243 57.0905C100.83 55.5789 101.087 54.0821 102.015 52.6001C102.989 51.1056 104.304 50.1337 105.959 49.6846C107.614 49.2354 109.026 49.3441 110.196 50.0107C111.365 50.6773 112.157 51.7664 112.57 53.278C112.971 54.7438 112.661 56.2302 111.641 57.7372C110.667 59.2317 109.375 60.1973 107.767 60.634C106.158 61.0707 104.775 60.9786 103.617 60.3578Z" fill="#4E382F"/>
<path d="M139.037 60.5605C139.104 60.444 139.194 59.7799 139.307 58.5682C141.468 57.9818 144.539 57.8371 148.521 58.134C148.411 62.2479 148.581 66.4825 149.031 70.8381C149.468 75.1478 149.931 78.1959 150.419 79.9823C150.895 81.7229 151.317 82.5433 151.685 82.4435C151.96 82.3687 152.853 81.659 154.362 80.3146L155.076 79.6778L156.975 81.7457C156.661 82.2245 156.235 82.8323 155.696 83.5691C155.202 84.2934 154.168 85.3861 152.592 86.8471C151.004 88.2623 149.474 89.1695 148.003 89.5688C145.153 90.3423 143.148 89.5089 141.987 87.0685C139.746 90.4322 137.43 92.4384 135.04 93.0872C132.696 93.7235 130.446 93.3501 128.29 91.967C126.18 90.5714 124.587 87.904 123.51 83.9646C121.833 77.8266 121.776 72.6509 123.34 68.4376C124.892 64.1785 127.46 61.5624 131.046 60.5892C133.62 59.8905 136.284 59.8809 139.037 60.5605ZM137.581 86.124C138.684 85.8245 139.806 85.0525 140.947 83.8079C139.504 77.2619 138.837 70.5787 138.948 63.7583C137.406 63.5372 136.153 63.5576 135.188 63.8196C133.533 64.2687 132.552 66.2816 132.246 69.8583C131.973 73.3766 132.369 77.0826 133.433 80.9761C134.498 84.8696 135.88 86.5856 137.581 86.124Z" fill="#4E382F"/>
<path d="M189.982 91.3505C189.819 92.9202 189.252 94.2795 188.283 95.4284C187.359 96.5648 186.092 97.3514 184.484 97.788C182.921 98.2123 180.29 97.8929 176.593 96.8299C172.941 95.7544 170.098 95.1976 168.063 95.1595C167.272 97.1454 166.246 98.9001 164.984 100.424C163.721 101.947 162.791 102.79 162.194 102.952C161.734 103.077 160.545 102.342 158.628 100.746C156.698 99.1052 155.614 97.8495 155.376 96.9792C155.238 96.4753 155.744 95.5261 156.894 94.1316C158.089 92.7246 159.442 91.6195 160.95 90.8164C161.336 87.7103 161.404 83.2633 161.155 77.4755C160.894 71.6419 160.313 65.7228 159.412 59.7183C159.212 58.9854 158.721 58.1837 157.94 57.3132C157.192 56.3844 156.478 55.668 155.797 55.1639L154.845 54.3891L154.77 53.3023C157.315 51.775 161.737 50.1567 168.034 48.4474C168.907 49.293 169.625 50.7464 170.189 52.8077C170.752 54.869 170.994 58.1002 170.913 62.5013C170.832 66.9025 170.517 72.2529 169.967 78.5526C169.451 84.7941 169.176 88.4852 169.143 89.6261C169.339 89.622 169.957 89.6264 170.998 89.6392C172.038 89.652 172.709 89.6668 173.01 89.6836C173.344 89.642 173.979 89.6173 174.915 89.6092C175.839 89.5554 176.566 89.5057 177.097 89.4601C177.615 89.3686 178.3 89.2564 179.152 89.1235C180.64 88.9657 182.004 88.7184 183.246 88.3815C184.533 88.0322 185.364 87.462 185.741 86.671L186.695 82.5741L189.12 82.5062C189.934 85.4836 190.222 88.4317 189.982 91.3505Z" fill="#4E382F"/>
<path d="M207.171 59.6717C207.238 59.5552 207.328 58.8911 207.441 57.6794C209.602 57.093 212.673 56.9483 216.655 57.2452C216.545 61.359 216.715 65.5937 217.165 69.9492C217.602 74.259 218.065 77.307 218.553 79.0935C219.029 80.8341 219.451 81.6545 219.819 81.5547C220.095 81.4799 220.987 80.7702 222.496 79.4258L223.211 78.7889L225.109 80.8569C224.795 81.3357 224.369 81.9434 223.83 82.6803C223.336 83.4046 222.302 84.4973 220.726 85.9583C219.138 87.3735 217.608 88.2807 216.137 88.6799C213.287 89.4535 211.282 88.6201 210.121 86.1797C207.88 89.5433 205.565 91.5496 203.174 92.1983C200.83 92.8347 198.58 92.4613 196.424 91.0782C194.315 89.6826 192.721 87.0151 191.645 83.0758C189.967 76.9378 189.91 71.7621 191.474 67.5488C193.026 63.2897 195.594 60.6735 199.18 59.7004C201.754 59.0017 204.418 58.9921 207.171 59.6717ZM205.715 85.2351C206.818 84.9357 207.94 84.1637 209.082 82.9191C207.638 76.373 206.972 69.6899 207.082 62.8695C205.541 62.6483 204.287 62.6688 203.322 62.9308C201.667 63.3799 200.686 65.3928 200.38 68.9695C200.107 72.4878 200.503 76.1938 201.567 80.0873C202.632 83.9808 204.014 85.6968 205.715 85.2351Z" fill="#4E382F"/>
<path d="M229.446 84.4034L228.136 84.759C227.548 82.6061 227.064 78.3088 226.686 71.8672C226.354 65.4132 226.075 61.7739 225.85 60.9494C225.437 59.4378 224.355 58.0092 222.605 56.6637L221.759 56.0077L221.583 55.0957C223.878 53.7349 227.76 52.3121 233.23 50.8274C234.041 51.4439 234.751 52.7766 235.36 54.8254C238.52 50.6709 241.48 48.2193 244.238 47.4707C245.892 47.0216 247.359 47.2386 248.637 48.1217C249.962 48.9924 250.862 50.2981 251.338 52.0387C251.801 53.7335 252.08 56.8315 252.174 61.3327C252.269 65.8338 252.517 68.8173 252.917 70.2831C253.305 71.7031 253.683 72.3632 254.051 72.2634C254.327 72.1885 255.173 71.4913 256.59 70.1718L257.305 69.535L259.204 71.603C258.89 72.0817 258.464 72.6895 257.924 73.4263C257.385 74.1631 256.305 75.2683 254.683 76.7418C253.094 78.157 251.565 79.0642 250.094 79.4634C246.738 80.3742 244.541 78.9287 243.502 75.1267C243.063 73.5235 242.761 70.4318 242.596 65.8515C242.476 61.2587 242.247 58.344 241.909 57.1072C241.571 55.8704 241.011 55.3581 240.23 55.5702C238.897 55.932 237.421 56.9475 235.804 58.6167C235.879 59.4328 235.983 61.6189 236.115 65.1748C236.472 72.8031 237.057 78.106 237.871 81.0834C236.438 82.1613 233.629 83.268 229.446 84.4034Z" fill="#4E382F"/>
<path d="M269.66 45.1466C270.186 47.0704 270.473 50.5598 270.522 55.6148C270.558 60.6239 270.776 63.8613 271.177 65.3271C271.565 66.7471 271.966 67.401 272.379 67.2887C272.655 67.2138 273.594 66.4917 275.194 65.1223L275.909 64.4855L277.739 66.5722C277.425 67.0509 276.999 67.6587 276.459 68.3955C275.92 69.1323 274.84 70.2375 273.218 71.711C271.584 73.1386 269.962 74.0708 268.353 74.5075C266.744 74.9442 265.349 74.8063 264.166 74.0939C262.972 73.3357 262.149 72.1321 261.698 70.4831C261.235 68.7882 260.996 65.6549 260.98 61.083C260.953 56.4652 260.763 53.5151 260.413 52.2325C259.887 50.3087 258.795 48.6615 257.136 47.2911L256.29 46.635L256.115 45.723C258.364 44.3747 262.223 42.9582 267.693 41.4734C268.479 41.9983 269.134 43.2227 269.66 45.1466ZM258.682 35.8743C257.512 35.2077 256.721 34.1186 256.308 32.607C255.894 31.0954 256.152 29.5986 257.08 28.1166C258.054 26.6221 259.369 25.6502 261.023 25.2011C262.678 24.7519 264.091 24.8606 265.26 25.5272C266.43 26.1938 267.222 27.2829 267.635 28.7945C268.035 30.2603 267.726 31.7467 266.706 33.2537C265.732 34.7482 264.44 35.7138 262.831 36.1505C261.222 36.5872 259.839 36.4951 258.682 35.8743Z" fill="#4E382F"/>
<path d="M277.804 58.2879C276.239 52.5621 276.73 47.5823 279.276 43.3485C281.856 39.0564 285.352 36.3115 289.765 35.1138C292.477 34.3777 294.888 34.4367 296.998 35.291C299.108 36.1453 300.469 37.6947 301.083 39.9392C301.684 42.1379 301.616 44.149 300.88 45.9725C300.19 47.7836 299.153 49.3197 297.77 50.5809C294.944 53.0699 292.232 54.8887 289.633 56.037L288.034 56.6923C289.533 60.9108 291.891 62.5833 295.109 61.71C296.212 61.4105 297.309 60.8175 298.4 59.931C299.491 59.0444 300.306 58.2328 300.845 57.4959L301.654 56.3907L303.91 58.1402C303.68 58.7439 303.126 59.6077 302.248 60.7317C301.37 61.8556 300.524 62.8235 299.709 63.6351C297.443 65.8246 294.725 67.3498 291.553 68.2106C288.381 69.0715 285.569 68.6292 283.117 66.8838C280.665 65.1384 278.894 62.2731 277.804 58.2879ZM287.045 53.3443C289.276 52.2957 290.869 50.8056 291.822 48.8739C292.776 46.9421 292.914 44.7395 292.238 42.266C291.562 39.7924 290.488 38.7553 289.018 39.1545C287.271 39.6286 286.322 41.4854 286.17 44.7248C286.052 47.906 286.344 50.7791 287.045 53.3443Z" fill="#4E382F"/>
<path d="M317.348 31.3175C315.509 31.8166 314.457 33.7504 314.193 37.1188C313.916 40.4415 314.254 43.8434 315.205 47.3247C316.708 52.8215 319.16 55.1082 322.561 54.185C323.665 53.8855 324.768 53.3154 325.871 52.4747C326.962 51.5881 327.806 50.7931 328.404 50.0896L329.213 48.9844L331.381 50.6839C331.151 51.2876 330.597 52.1514 329.719 53.2754C328.842 54.3994 327.995 55.3672 327.18 56.1789C326.365 56.9905 325.262 57.8313 323.87 58.7011C322.478 59.5709 321.047 60.2054 319.576 60.6046C315.99 61.5778 312.982 61.1396 310.551 59.2901C308.119 57.4406 306.365 54.5461 305.288 50.6068C303.798 45.1558 304.084 40.33 306.146 36.1294C308.253 31.9163 311.674 29.1672 316.409 27.8821C319.488 27.0461 322.119 27.0949 324.3 28.0283C326.514 28.9034 327.903 30.3716 328.466 32.4329C329.017 34.4484 328.85 36.3637 327.963 38.1788C326.814 38.4907 325.412 38.6006 323.757 38.5085C322.103 38.4163 320.784 38.1099 319.803 37.5891L319.184 31.2619C318.695 31.0994 318.083 31.1179 317.348 31.3175Z" fill="#4E382F"/>
<path d="M331.671 7.7233C331.258 6.2117 330.826 5.17268 330.375 4.60625C333.622 2.3963 336.832 0.860887 340.004 0C340.53 0.299967 341.025 1.29737 341.488 2.9922C342.528 6.79412 343.254 14.4204 343.668 25.8711C346.846 21.4168 350.434 18.647 354.433 17.5615C356.226 17.0749 357.893 17.2129 359.434 17.9754C360.976 18.7378 362.035 20.1726 362.611 22.2797C363.688 26.2191 361.229 29.9616 355.236 33.5072C358.055 37.8593 360.271 40.7269 361.884 42.1098C362.589 42.7054 363.057 42.9721 363.287 42.9097C363.793 42.7724 364.744 42.0961 366.14 40.8807L366.804 40.3313L368.546 42.368C367.718 43.6752 366.46 45.1238 364.771 46.7138C363.116 48.2456 361.484 49.2298 359.875 49.6665C356.29 50.6397 352.896 48.0674 349.693 41.9497C348.285 39.3302 347.181 36.8253 346.38 34.4349C349.134 32.9494 351.092 31.5322 352.254 30.1835C353.449 28.7765 353.84 27.3172 353.427 25.8056C353.002 24.2482 352.007 23.6816 350.444 24.1058C348.882 24.53 346.687 26.7986 343.861 30.9115C344.204 41.2005 344.864 48.1314 345.841 51.7043C343.513 53.1234 340.327 54.3819 336.281 55.4799C336.023 54.7137 335.812 54.0328 335.649 53.4373C335.111 51.4676 334.58 44.3785 334.058 32.17C333.581 19.949 332.786 11.8001 331.671 7.7233Z" fill="#4E382F"/>
<path d="M384.062 11.6599C384.129 11.5433 384.219 10.8792 384.332 9.66759C386.493 9.08119 389.564 8.93645 393.546 9.23337C393.436 13.3472 393.606 17.5819 394.056 21.9374C394.493 26.2471 394.956 29.2952 395.444 31.0817C395.92 32.8223 396.342 33.6427 396.71 33.5429C396.986 33.468 397.878 32.7584 399.387 31.414L400.102 30.7771L402 32.8451C401.686 33.3238 401.26 33.9316 400.721 34.6684C400.227 35.3928 399.193 36.4855 397.617 37.9465C396.029 39.3616 394.499 40.2689 393.028 40.6681C390.178 41.4417 388.173 40.6083 387.012 38.1679C384.771 41.5315 382.456 43.5377 380.065 44.1865C377.721 44.8228 375.471 44.4494 373.315 43.0663C371.206 41.6708 369.612 39.0033 368.536 35.064C366.858 28.9259 366.801 23.7503 368.365 19.537C369.917 15.2779 372.485 12.6617 376.071 11.6885C378.645 10.9898 381.309 10.9803 384.062 11.6599ZM382.606 37.2233C383.709 36.9239 384.831 36.1519 385.973 34.9072C384.529 28.3612 383.863 21.678 383.973 14.8577C382.432 14.6365 381.178 14.6569 380.213 14.9189C378.558 15.3681 377.577 17.381 377.271 20.9576C376.998 24.476 377.394 28.1819 378.458 32.0755C379.523 35.969 380.905 37.685 382.606 37.2233Z" fill="#4E382F"/>
<path d="M278.256 99.2589L278.098 98.7047C278.222 98.568 278.371 98.4479 278.544 98.3445C278.724 98.2392 278.849 98.1531 278.917 98.0861C278.986 98.0191 279.036 97.9307 279.065 97.8207C279.136 97.591 279.097 97.2162 278.949 96.6964L276.405 87.7442C276.256 87.2182 276.113 86.8965 275.979 86.7791C275.85 86.66 275.74 86.5932 275.648 86.5788C275.56 86.5563 275.462 86.5436 275.353 86.5408C275.015 86.5421 274.77 86.5167 274.62 86.4646L274.463 85.9104L278.117 84.872L281.91 98.2205L278.256 99.2589ZM282.471 97.2287L282.652 97.1874C284.061 96.787 285.018 96.356 285.523 95.8943C286.054 95.405 286.316 94.6605 286.31 93.6607C286.311 93.4505 286.308 93.2618 286.301 93.0946C286.299 92.9193 286.304 92.7588 286.317 92.6131C286.332 92.3108 286.401 92.0511 286.522 91.834L287.132 91.6605L288.467 96.3574L282.69 97.999L282.471 97.2287ZM282.372 83.6628C282.761 83.5525 283.373 83.3276 284.211 82.9881L285.519 87.591L284.861 87.7778C284.562 87.5583 284.303 87.2901 284.085 86.9732C283.866 86.6563 283.647 86.3497 283.427 86.0534C283.208 85.7571 283.007 85.5265 282.825 85.3617C282.642 85.1969 282.438 85.0723 282.211 84.9879C281.757 84.8191 281.207 84.8264 280.562 85.0097C279.923 85.1912 279.454 85.3752 279.155 85.5617L278.897 84.6505L282.372 83.6628ZM280.431 90.0519L283.174 89.2724L283.676 91.0385L280.933 91.8179L280.431 90.0519Z" fill="#4E382F" fill-opacity="0.6"/>
<path d="M293.548 94.3753C293.998 94.173 294.325 93.894 294.529 93.5384C294.737 93.1747 294.788 92.8081 294.683 92.4386C294.578 92.0691 294.422 91.8056 294.215 91.6479C294.012 91.4821 293.768 91.362 293.483 91.2873C293.202 91.2046 292.892 91.1505 292.554 91.125C292.213 91.0932 291.867 91.0663 291.515 91.0444C291.162 91.0161 290.812 90.9736 290.464 90.9168C290.116 90.8599 289.792 90.766 289.491 90.635C288.832 90.3416 288.4 89.8349 288.196 89.1147C288.012 88.4696 288.094 87.8272 288.44 87.1874C288.827 86.4547 289.456 85.9275 290.325 85.6059L290.536 86.348C290.193 86.5201 289.944 86.7532 289.791 87.0472C289.644 87.3394 289.615 87.6421 289.704 87.9552C289.793 88.2683 289.939 88.4974 290.143 88.6426C290.345 88.7815 290.587 88.8851 290.871 88.9535C291.158 89.0139 291.475 89.0559 291.82 89.0796C292.17 89.0953 292.528 89.1187 292.896 89.1496C293.262 89.1743 293.622 89.2173 293.978 89.2786C294.338 89.3319 294.672 89.4334 294.978 89.5832C295.668 89.9151 296.124 90.4693 296.344 91.2458C296.538 91.9284 296.455 92.612 296.094 93.2965C295.664 94.1159 294.886 94.7229 293.759 95.1174L293.548 94.3753ZM292.268 87.4397C292.134 86.97 292.221 86.6205 292.528 86.3911C292.236 86.1019 291.829 86.0042 291.308 86.0983L291.105 85.3844C291.95 85.2121 292.703 85.2449 293.367 85.4829C294.023 85.7226 294.431 86.1211 294.59 86.6785C294.686 87.0166 294.655 87.3131 294.497 87.5677C294.346 87.8206 294.088 87.9986 293.725 88.1018C293.368 88.2032 293.057 88.1934 292.793 88.0723C292.528 87.9512 292.353 87.7403 292.268 87.4397ZM291.817 93.2836C291.95 93.7533 291.863 94.1029 291.556 94.3322C291.848 94.6215 292.255 94.7191 292.777 94.6251L292.979 95.339C292.157 95.5185 291.404 95.4856 290.718 95.2405C290.061 95.0008 289.653 94.6023 289.495 94.0449C289.399 93.7067 289.427 93.4112 289.578 93.1583C289.736 92.9037 289.993 92.7257 290.35 92.6242C290.713 92.521 291.027 92.53 291.292 92.6511C291.556 92.7722 291.731 92.983 291.817 93.2836Z" fill="#4E382F" fill-opacity="0.6"/>
<path d="M299.558 83.3683L301.098 82.9305L301.333 83.7572L299.792 84.195L299.558 83.3683ZM301.434 92.9366C300.336 93.1944 299.56 92.8937 299.106 92.0345C298.962 91.7642 298.839 91.4506 298.738 91.0937L297.002 84.9877L295.734 85.3481L295.572 84.7751C295.642 84.667 295.724 84.5727 295.816 84.4924C295.913 84.404 296.007 84.3196 296.099 84.2393C296.336 84.0232 296.489 83.8003 296.559 83.5706C296.627 83.3346 296.67 83.0923 296.688 82.8437C296.709 82.5871 296.717 82.338 296.709 82.0966C296.706 81.8471 296.698 81.6056 296.686 81.3722C296.68 81.137 296.687 80.9013 296.708 80.6653L297.838 80.2833L301.434 92.9366ZM301.971 91.8602C302.44 91.7268 302.711 91.2876 302.784 90.5428C302.807 90.313 302.821 90.0653 302.827 89.7997L303.468 89.7698C303.617 90.9388 303.436 91.7653 302.924 92.2493C302.737 92.4243 302.498 92.5733 302.208 92.6963L301.971 91.8602Z" fill="#4E382F" fill-opacity="0.6"/>
<path d="M305.651 89.058C305.79 88.9508 305.947 88.8724 306.123 88.8225C306.304 88.7709 306.483 88.7573 306.659 88.7817C306.834 88.7999 306.993 88.8493 307.138 88.93C307.452 89.1048 307.659 89.3707 307.76 89.7277C307.921 90.2913 307.773 90.7494 307.319 91.102C307.18 91.2091 307.02 91.2885 306.838 91.3401C306.663 91.3899 306.488 91.4057 306.313 91.3876C306.139 91.3695 305.976 91.3209 305.825 91.242C305.515 91.0797 305.309 90.817 305.205 90.4537C305.045 89.8901 305.194 89.4248 305.651 89.058Z" fill="#4E382F" fill-opacity="0.6"/>
<path d="M314.505 75.0194C313.952 75.2171 313.542 75.5367 313.275 75.9781C313.012 76.4114 312.939 76.8348 313.057 77.2481C313.19 77.3118 313.337 77.3647 313.498 77.407C313.665 77.4475 313.825 77.4969 313.977 77.5552C314.349 77.6998 314.581 77.9317 314.672 78.2511C314.82 78.7709 314.688 79.1669 314.278 79.439C314.158 79.514 314.025 79.5719 313.881 79.6128C313.449 79.7356 313.076 79.6859 312.763 79.4637C312.449 79.2414 312.227 78.9017 312.097 78.4446C311.966 77.9812 311.92 77.5577 311.96 77.1741C312.004 76.7824 312.121 76.4075 312.31 76.0491C312.716 75.2636 313.38 74.6824 314.302 74.3055L314.505 75.0194ZM316.767 86.5897L318.374 86.1332C319.601 85.7844 320.348 85.2945 320.616 84.6636C320.75 84.3481 320.833 83.9994 320.867 83.6176C320.907 83.234 320.952 82.9166 321.002 82.6654L321.453 82.5373L322.622 86.6517L316.084 88.5096L316.767 86.5897ZM315.23 88.7525L314.722 88.8966L314.406 87.0678C315.299 85.0677 316.003 83.565 316.516 82.5597C317.027 81.5481 317.368 80.7947 317.538 80.2995C317.91 79.226 317.97 78.2447 317.717 77.3554C317.24 75.677 316.435 74.8464 315.303 74.8636L315.074 74.0557C316.318 73.7427 317.404 73.8471 318.33 74.3689C319.18 74.8584 319.744 75.5948 320.024 76.578C320.508 78.2814 319.772 80.6596 317.818 83.7125C317.534 84.1449 317.271 84.5514 317.027 84.932C316.438 85.8371 316.081 86.4599 315.954 86.8004L315.23 88.7525Z" fill="#4E382F" fill-opacity="0.6"/>
<path d="M328.766 85.1904C327.655 85.3569 326.605 84.982 325.613 84.0658C324.495 83.0366 323.633 81.4543 323.026 79.3188C322.421 77.1896 322.323 75.3933 322.733 73.9299C323.095 72.6293 323.791 71.7579 324.823 71.3158L325.028 72.0392C324.536 72.3076 324.285 72.8867 324.273 73.7765C324.263 74.8353 324.574 76.4763 325.205 78.6995C326.111 81.8871 326.971 83.7341 327.785 84.2406C328.04 84.3983 328.297 84.4707 328.557 84.4577L328.766 85.1904ZM329.34 84.2455C329.827 83.9851 330.077 83.41 330.088 82.5202C330.1 81.4676 329.788 79.8204 329.151 77.5784C328.248 74.4033 327.386 72.5603 326.564 72.0494C326.31 71.8916 326.059 71.8175 325.811 71.827L325.6 71.0849C326.71 70.9184 327.757 71.291 328.74 72.2028C329.868 73.2427 330.734 74.8272 331.339 76.9565C331.944 79.0857 332.041 80.8892 331.628 82.3668C331.271 83.6594 330.577 84.5267 329.545 84.9688L329.34 84.2455Z" fill="#4E382F" fill-opacity="0.6"/>
<path d="M338.667 82.3769C337.556 82.5434 336.506 82.1686 335.514 81.2523C334.396 80.2232 333.534 78.6409 332.927 76.5053C332.322 74.3761 332.224 72.5798 332.634 71.1165C332.996 69.8158 333.692 68.9445 334.724 68.5024L334.929 69.2257C334.437 69.4942 334.186 70.0733 334.174 70.9631C334.164 72.0219 334.475 73.6629 335.106 75.8861C336.012 79.0737 336.872 80.9207 337.686 81.4271C337.941 81.5849 338.198 81.6573 338.458 81.6442L338.667 82.3769ZM339.241 81.4321C339.728 81.1716 339.978 80.5965 339.989 79.7067C340.001 78.6542 339.689 77.0069 339.052 74.765C338.149 71.5899 337.287 69.7469 336.465 69.236C336.211 69.0782 335.96 69.0041 335.712 69.0135L335.501 68.2714C336.611 68.1049 337.658 68.4775 338.641 69.3893C339.769 70.4292 340.635 72.0138 341.24 74.143C341.845 76.2723 341.942 78.0757 341.529 79.5533C341.172 80.846 340.478 81.7133 339.446 82.1554L339.241 81.4321Z" fill="#4E382F" fill-opacity="0.6"/>
<path d="M348.568 79.5635C347.457 79.73 346.407 79.3551 345.415 78.4389C344.297 77.4097 343.435 75.8274 342.828 73.6919C342.223 71.5626 342.125 69.7664 342.535 68.303C342.897 67.0024 343.593 66.131 344.625 65.6889L344.83 66.4122C344.338 66.6807 344.087 67.2598 344.075 68.1496C344.065 69.2084 344.376 70.8494 345.007 73.0726C345.913 76.2602 346.773 78.1072 347.587 78.6137C347.842 78.7714 348.099 78.8438 348.359 78.8308L348.568 79.5635ZM349.142 78.6186C349.629 78.3582 349.879 77.7831 349.89 76.8933C349.902 75.8407 349.59 74.1935 348.953 71.9515C348.05 68.7764 347.188 66.9334 346.366 66.4225C346.112 66.2647 345.861 66.1906 345.613 66.2001L345.402 65.458C346.512 65.2915 347.559 65.6641 348.542 66.5759C349.67 67.6157 350.536 69.2003 351.141 71.3296C351.746 73.4588 351.843 75.2622 351.43 76.7399C351.073 78.0325 350.379 78.8998 349.347 79.3419L349.142 78.6186Z" fill="#4E382F" fill-opacity="0.6"/>
</svg>
