<svg width="78" height="31" viewBox="0 0 78 31" fill="none" xmlns="http://www.w3.org/2000/svg">
<path d="M15.624 24.264L0.18 18.54V13.032L15.624 7.308V10.548L0.756 15.768L15.624 21.024V24.264ZM18.4843 27V1.8H22.0843V23.112C22.0843 17.46 23.4163 15.192 26.0443 12.42L29.9683 8.496H34.5763L27.7723 15.516L34.9723 27H30.7963L25.2523 18.108C24.1003 19.296 22.0843 21.708 22.0843 26.208V27H18.4843ZM38.1299 27V1.8H41.7299V27H38.1299ZM45.7419 30.888L56.2179 -2.14577e-06H59.9259L49.4499 30.888H45.7419ZM61.7738 24.264V21.024L76.6418 15.768L61.7738 10.548V7.308L77.2178 13.032V18.54L61.7738 24.264Z" fill="black"/>
</svg>
